<svg xmlns="http://www.w3.org/2000/svg" xmlns:xlink="http://www.w3.org/1999/xlink" viewBox="0 0 528.69 39.31"><defs><style>.cls-1,.cls-3,.cls-5{fill:none;}.cls-2{clip-path:url(#clip-path);}.cls-3,.cls-5{stroke:#2178ff;}.cls-3{stroke-linecap:square;stroke-width:1.73px;}.cls-4{fill:#fff;}.cls-5{stroke-width:2.16px;}</style><clipPath id="clip-path" transform="translate(-8.35 -8.81)"><polygon class="cls-1" points="0 0 35.66 2.88 40.75 34.55 0 34.55 0 0"/></clipPath></defs><g id="Layer_2" data-name="Layer 2"><g id="Layer_1-2" data-name="Layer 1"><g class="cls-2"><path class="cls-3" d="M9.22,47.26h527" transform="translate(-8.35 -8.81)"/><path class="cls-4" d="M55.68,22.57H54.07l-6.15-9.4v9.4H46.31V10.37h1.61l6.16,9.44V10.37h1.6Zm8.22,0a3.4,3.4,0,0,1-.22-1,3.46,3.46,0,0,1-2.58,1.13A3.21,3.21,0,0,1,58.89,22,2.46,2.46,0,0,1,58,20.06a2.57,2.57,0,0,1,1.07-2.2,5,5,0,0,1,3-.79h1.5v-.71a1.74,1.74,0,0,0-.48-1.29,2,2,0,0,0-1.44-.49,2.27,2.27,0,0,0-1.39.42,1.25,1.25,0,0,0-.56,1H58.22a2.12,2.12,0,0,1,.48-1.31,3.34,3.34,0,0,1,1.31-1,4.52,4.52,0,0,1,1.82-.37,3.59,3.59,0,0,1,2.45.79,2.82,2.82,0,0,1,.92,2.16v4.17a5.2,5.2,0,0,0,.32,2v.13Zm-2.58-1.18A2.77,2.77,0,0,0,62.71,21a2.27,2.27,0,0,0,.94-1V18.17H62.44c-1.9,0-2.85.56-2.85,1.67A1.41,1.41,0,0,0,60.08,21,1.87,1.87,0,0,0,61.32,21.39Zm7.77-7.89,0,1a3.38,3.38,0,0,1,2.69-1.18,2.59,2.59,0,0,1,2.59,1.46,3.51,3.51,0,0,1,1.18-1,3.47,3.47,0,0,1,1.72-.41c2,0,3,1.06,3,3.16v6.08H78.79v-6a2,2,0,0,0-.45-1.45,1.91,1.91,0,0,0-1.49-.49,2,2,0,0,0-1.43.52,2.06,2.06,0,0,0-.66,1.38v6H73.2V16.63a1.73,1.73,0,0,0-1.94-2A2.06,2.06,0,0,0,69.18,16v6.62H67.63V13.5Zm17.36,9.24a4,4,0,0,1-3-1.21,4.51,4.51,0,0,1-1.16-3.24V18a5.43,5.43,0,0,1,.51-2.4,4,4,0,0,1,1.44-1.66,3.66,3.66,0,0,1,2-.61A3.38,3.38,0,0,1,89,14.5a5,5,0,0,1,1,3.33v.65H83.84a3.23,3.23,0,0,0,.78,2.17,2.47,2.47,0,0,0,1.91.82,2.72,2.72,0,0,0,1.39-.33,3.52,3.52,0,0,0,1-.89l1,.74A3.82,3.82,0,0,1,86.45,22.74Zm-.19-8.13a2.05,2.05,0,0,0-1.58.69,3.29,3.29,0,0,0-.79,1.91h4.54v-.12a2.91,2.91,0,0,0-.63-1.83A2,2,0,0,0,86.26,14.61Z" transform="translate(-8.35 -8.81)"/><path class="cls-5" d="M15.91,16.8a3.46,3.46,0,1,0-3.45-3.45A3.46,3.46,0,0,0,15.91,16.8Z" transform="translate(-8.35 -8.81)"/><path class="cls-5" d="M12.67,20h6.48a2.16,2.16,0,0,1,2.16,2.16h0a2.16,2.16,0,0,1-2.16,2.16H12.67a2.16,2.16,0,0,1-2.16-2.16h0A2.16,2.16,0,0,1,12.67,20Z" transform="translate(-8.35 -8.81)"/></g></g></g></svg>