<?xml version="1.0" encoding="utf-8"?>
<!-- Generator: Adobe Illustrator 24.1.1, SVG Export Plug-In . SVG Version: 6.00 Build 0)  -->
<svg version="1.1" id="Layer_1" xmlns="http://www.w3.org/2000/svg" xmlns:xlink="http://www.w3.org/1999/xlink" x="0px" y="0px"
	 viewBox="0 0 528 46" style="enable-background:new 0 0 528 46;" xml:space="preserve">
<style type="text/css">
	.st0{clip-path:url(#SVGID_2_);}
	.st1{fill:none;stroke:#2178FF;stroke-width:1.728;stroke-linecap:square;}
	.st2{fill:#FFFFFF;}
	.st3{fill:none;stroke:#2178FF;stroke-width:2.16;}
</style>
<g>
	<defs>
		<polygon id="SVGID_1_" points="-6.1,-2.5 13.2,0.3 16,32 -6.1,32 		"/>
	</defs>
	<clipPath id="SVGID_2_">
		<use xlink:href="#SVGID_1_"  style="overflow:visible;"/>
	</clipPath>
	<g class="st0">
		<path class="st1" d="M0.2,44.7h527"/>
		<path class="st2" d="M46.7,20h-1.6l-6.1-9.4V20h-1.6V7.8h1.6l6.2,9.4V7.8h1.6V20z M54.9,20c-0.1-0.2-0.2-0.5-0.2-1
			c-0.7,0.7-1.6,1.1-2.6,1.1c-0.9,0-1.6-0.3-2.2-0.8c-0.6-0.5-0.9-1.2-0.9-1.9c0-0.9,0.4-1.7,1.1-2.2c0.7-0.5,1.7-0.8,3-0.8h1.5
			v-0.7c0-0.5-0.2-1-0.5-1.3c-0.3-0.3-0.8-0.5-1.4-0.5c-0.6,0-1,0.1-1.4,0.4c-0.4,0.3-0.6,0.6-0.6,1h-1.6c0-0.5,0.2-0.9,0.5-1.3
			c0.3-0.4,0.8-0.8,1.3-1c0.6-0.2,1.2-0.4,1.8-0.4c1,0,1.9,0.3,2.5,0.8c0.6,0.5,0.9,1.2,0.9,2.2v4.2c0,0.8,0.1,1.5,0.3,2V20H54.9z
			 M52.3,18.8c0.5,0,0.9-0.1,1.4-0.4c0.4-0.3,0.8-0.6,0.9-1v-1.9h-1.2c-1.9,0-2.8,0.6-2.8,1.7c0,0.5,0.2,0.9,0.5,1.1
			C51.4,18.7,51.8,18.8,52.3,18.8z M60.1,11l0,1c0.7-0.8,1.6-1.2,2.7-1.2c1.3,0,2.1,0.5,2.6,1.5c0.3-0.4,0.7-0.8,1.2-1.1
			c0.5-0.3,1.1-0.4,1.7-0.4c2,0,3,1.1,3,3.2V20h-1.6v-6c0-0.6-0.1-1.1-0.4-1.4c-0.3-0.3-0.8-0.5-1.5-0.5c-0.6,0-1.1,0.2-1.4,0.5
			C66,13,65.8,13.4,65.8,14v6h-1.6v-5.9c0-1.3-0.6-2-1.9-2c-1,0-1.7,0.4-2.1,1.3V20h-1.6V11H60.1z M77.4,20.2c-1.2,0-2.2-0.4-3-1.2
			c-0.8-0.8-1.2-1.9-1.2-3.2v-0.3c0-0.9,0.2-1.7,0.5-2.4c0.3-0.7,0.8-1.3,1.4-1.7c0.6-0.4,1.3-0.6,2-0.6c1.2,0,2.1,0.4,2.7,1.2
			c0.7,0.8,1,1.9,1,3.3v0.6h-6.1c0,0.9,0.3,1.6,0.8,2.2c0.5,0.5,1.1,0.8,1.9,0.8c0.5,0,1-0.1,1.4-0.3c0.4-0.2,0.7-0.5,1-0.9l0.9,0.7
			C80.1,19.6,79,20.2,77.4,20.2z M77.3,12.1c-0.6,0-1.2,0.2-1.6,0.7c-0.4,0.5-0.7,1.1-0.8,1.9h4.5v-0.1c0-0.8-0.3-1.4-0.6-1.8
			C78.4,12.3,77.9,12.1,77.3,12.1z"/>
		<path class="st3" d="M6.9,14.3c1.9,0,3.5-1.5,3.5-3.5S8.8,7.3,6.9,7.3c-1.9,0-3.5,1.5-3.5,3.5S5,14.3,6.9,14.3z"/>
		<path class="st3" d="M3.7,17.5h6.5c1.2,0,2.2,1,2.2,2.2l0,0c0,1.2-1,2.2-2.2,2.2H3.7c-1.2,0-2.2-1-2.2-2.2l0,0
			C1.5,18.5,2.5,17.5,3.7,17.5z"/>
	</g>
</g>
</svg>
