<svg width="689" height="598" viewBox="0 0 689 598" fill="none" xmlns="http://www.w3.org/2000/svg">
<g opacity="0.670085">
<path opacity="0.9" fill-rule="evenodd" clip-rule="evenodd" d="M193.6 37.2104C301.704 -30.0519 697.289 161.366 685.196 230.208C673.104 299.049 623.934 584.781 516.055 593.609C408.177 602.436 155.822 505.756 79.1749 411.656C2.5278 317.556 85.4951 104.473 193.6 37.2104Z" fill="#0074E4"/>
</g>
<path opacity="0.9" fill-rule="evenodd" clip-rule="evenodd" d="M140.349 32.8838C245.017 -39.8957 650.933 130.378 642.434 199.703C633.936 269.028 599.685 556.712 492.184 571.173C384.683 585.633 127.069 502.386 45.4363 412.507C-36.1968 322.629 35.6811 105.663 140.349 32.8838Z" fill="#0074E4"/>
<rect x="90" y="325" width="224" height="58" rx="29" fill="white"/>
<path d="M140.367 357.363H135.744L134.865 360H132.062L136.825 347.203H139.269L144.059 360H141.255L140.367 357.363ZM136.456 355.228H139.655L138.047 350.438L136.456 355.228ZM154.226 355.333C154.226 356.798 153.892 357.973 153.224 358.857C152.562 359.736 151.665 360.176 150.534 360.176C149.573 360.176 148.797 359.842 148.205 359.174V363.656H145.665V350.49H148.021L148.108 351.422C148.724 350.684 149.526 350.314 150.517 350.314C151.688 350.314 152.6 350.748 153.25 351.615C153.9 352.482 154.226 353.678 154.226 355.201V355.333ZM151.686 355.148C151.686 354.264 151.527 353.581 151.211 353.101C150.9 352.62 150.446 352.38 149.849 352.38C149.052 352.38 148.504 352.685 148.205 353.294V357.188C148.516 357.814 149.069 358.128 149.866 358.128C151.079 358.128 151.686 357.135 151.686 355.148ZM165.368 355.333C165.368 356.798 165.034 357.973 164.366 358.857C163.704 359.736 162.808 360.176 161.677 360.176C160.716 360.176 159.939 359.842 159.348 359.174V363.656H156.808V350.49H159.163L159.251 351.422C159.866 350.684 160.669 350.314 161.659 350.314C162.831 350.314 163.742 350.748 164.393 351.615C165.043 352.482 165.368 353.678 165.368 355.201V355.333ZM162.828 355.148C162.828 354.264 162.67 353.581 162.354 353.101C162.043 352.62 161.589 352.38 160.991 352.38C160.194 352.38 159.646 352.685 159.348 353.294V357.188C159.658 357.814 160.212 358.128 161.009 358.128C162.222 358.128 162.828 357.135 162.828 355.148ZM170.631 360H168.082V346.5H170.631V360ZM177.282 356.405L179.04 350.49H181.765L177.941 361.477L177.73 361.978C177.162 363.22 176.225 363.841 174.918 363.841C174.549 363.841 174.174 363.785 173.793 363.674V361.749L174.18 361.758C174.66 361.758 175.018 361.685 175.252 361.538C175.492 361.392 175.68 361.148 175.814 360.809L176.113 360.026L172.782 350.49H175.516L177.282 356.405ZM199.822 360H197.186L192.053 351.58V360H189.416V347.203H192.053L197.194 355.641V347.203H199.822V360ZM202.562 355.157C202.562 354.214 202.744 353.373 203.107 352.635C203.471 351.896 203.992 351.325 204.672 350.921C205.357 350.517 206.151 350.314 207.054 350.314C208.337 350.314 209.383 350.707 210.191 351.492C211.006 352.277 211.46 353.344 211.554 354.691L211.571 355.342C211.571 356.801 211.164 357.973 210.35 358.857C209.535 359.736 208.442 360.176 207.071 360.176C205.7 360.176 204.604 359.736 203.784 358.857C202.97 357.979 202.562 356.783 202.562 355.271V355.157ZM205.103 355.342C205.103 356.244 205.272 356.936 205.612 357.416C205.952 357.891 206.438 358.128 207.071 358.128C207.687 358.128 208.167 357.894 208.513 357.425C208.858 356.95 209.031 356.194 209.031 355.157C209.031 354.272 208.858 353.587 208.513 353.101C208.167 352.614 207.681 352.371 207.054 352.371C206.433 352.371 205.952 352.614 205.612 353.101C205.272 353.581 205.103 354.328 205.103 355.342ZM222.406 356.546L223.654 350.49H226.106L223.681 360H221.554L219.752 354.015L217.95 360H215.832L213.406 350.49H215.858L217.098 356.537L218.838 350.49H220.675L222.406 356.546Z" fill="#111111"/>
<path d="M272.366 354.422L265.258 347.314C265.056 347.111 264.785 347 264.497 347C264.208 347 263.938 347.112 263.735 347.314L263.09 347.96C262.887 348.162 262.775 348.433 262.775 348.721C262.775 349.01 262.887 349.289 263.09 349.492L267.236 353.647H254.063C253.469 353.647 253 354.112 253 354.706V355.619C253 356.213 253.469 356.725 254.063 356.725H267.283L263.09 360.903C262.887 361.106 262.776 361.369 262.776 361.658C262.776 361.946 262.887 362.213 263.09 362.416L263.735 363.059C263.938 363.262 264.208 363.372 264.497 363.372C264.785 363.372 265.056 363.26 265.259 363.058L272.366 355.95C272.569 355.747 272.681 355.475 272.68 355.186C272.681 354.897 272.569 354.625 272.366 354.422Z" fill="#FF6E43"/>
<path d="M106.66 212.727H100.708V226H93.2373V189.742H106.709C110.993 189.742 114.296 190.697 116.621 192.606C118.945 194.515 120.107 197.213 120.107 200.699C120.107 203.173 119.567 205.24 118.488 206.9C117.426 208.543 115.807 209.855 113.632 210.834L121.477 225.651V226H113.458L106.66 212.727ZM100.708 206.676H106.734C108.61 206.676 110.063 206.203 111.092 205.256C112.122 204.293 112.636 202.974 112.636 201.297C112.636 199.587 112.146 198.242 111.167 197.263C110.204 196.283 108.718 195.793 106.709 195.793H100.708V206.676ZM138.588 226.498C134.637 226.498 131.416 225.286 128.926 222.862C126.452 220.438 125.215 217.209 125.215 213.175V212.478C125.215 209.772 125.738 207.356 126.784 205.231C127.83 203.09 129.308 201.446 131.217 200.301C133.142 199.139 135.334 198.558 137.791 198.558C141.476 198.558 144.373 199.72 146.482 202.044C148.607 204.368 149.669 207.664 149.669 211.93V214.869H132.512C132.744 216.628 133.441 218.04 134.603 219.102C135.782 220.165 137.268 220.696 139.061 220.696C141.833 220.696 144 219.691 145.56 217.683L149.097 221.642C148.017 223.169 146.557 224.365 144.714 225.228C142.871 226.075 140.829 226.498 138.588 226.498ZM137.766 204.385C136.338 204.385 135.176 204.866 134.28 205.829C133.4 206.792 132.835 208.17 132.586 209.963H142.597V209.39C142.564 207.796 142.132 206.568 141.302 205.705C140.472 204.825 139.293 204.385 137.766 204.385ZM156.596 226V204.335H152.586V199.056H156.596V196.765C156.596 193.743 157.459 191.402 159.185 189.742C160.929 188.065 163.361 187.227 166.482 187.227C167.478 187.227 168.698 187.393 170.142 187.725L170.068 193.303C169.47 193.154 168.74 193.079 167.876 193.079C165.17 193.079 163.817 194.349 163.817 196.889V199.056H169.171V204.335H163.817V226H156.596ZM185.56 226.498C181.609 226.498 178.388 225.286 175.898 222.862C173.425 220.438 172.188 217.209 172.188 213.175V212.478C172.188 209.772 172.711 207.356 173.757 205.231C174.802 203.09 176.28 201.446 178.189 200.301C180.115 199.139 182.306 198.558 184.763 198.558C188.449 198.558 191.346 199.72 193.454 202.044C195.579 204.368 196.642 207.664 196.642 211.93V214.869H179.484C179.717 216.628 180.414 218.04 181.576 219.102C182.755 220.165 184.24 220.696 186.033 220.696C188.806 220.696 190.972 219.691 192.533 217.683L196.069 221.642C194.99 223.169 193.529 224.365 191.686 225.228C189.843 226.075 187.801 226.498 185.56 226.498ZM184.738 204.385C183.311 204.385 182.149 204.866 181.252 205.829C180.372 206.792 179.808 208.17 179.559 209.963H189.57V209.39C189.536 207.796 189.105 206.568 188.275 205.705C187.445 204.825 186.266 204.385 184.738 204.385ZM216.741 205.804C215.762 205.671 214.899 205.605 214.151 205.605C211.429 205.605 209.644 206.526 208.797 208.369V226H201.601V199.056H208.399L208.598 202.268C210.043 199.794 212.043 198.558 214.6 198.558C215.397 198.558 216.144 198.666 216.841 198.881L216.741 205.804ZM217.118 222.464C217.118 221.318 217.5 220.389 218.264 219.675C219.044 218.961 220.015 218.604 221.177 218.604C222.356 218.604 223.327 218.961 224.091 219.675C224.871 220.389 225.261 221.318 225.261 222.464C225.261 223.593 224.879 224.514 224.116 225.228C223.352 225.925 222.373 226.274 221.177 226.274C219.999 226.274 219.027 225.925 218.264 225.228C217.5 224.514 217.118 223.593 217.118 222.464ZM268.274 210.287H253.93V219.999H270.764V226H246.46V189.742H270.715V195.793H253.93V204.435H268.274V210.287ZM291.138 226C290.806 225.353 290.565 224.547 290.416 223.584C288.673 225.527 286.406 226.498 283.617 226.498C280.978 226.498 278.786 225.734 277.043 224.207C275.317 222.68 274.453 220.754 274.453 218.43C274.453 215.574 275.508 213.383 277.616 211.855C279.741 210.328 282.804 209.556 286.805 209.54H290.117V207.996C290.117 206.75 289.793 205.754 289.146 205.007C288.515 204.26 287.51 203.887 286.133 203.887C284.921 203.887 283.966 204.177 283.269 204.758C282.588 205.339 282.248 206.136 282.248 207.149H275.051C275.051 205.588 275.532 204.144 276.495 202.816C277.458 201.488 278.82 200.45 280.579 199.703C282.339 198.939 284.315 198.558 286.506 198.558C289.826 198.558 292.458 199.396 294.4 201.073C296.359 202.733 297.339 205.074 297.339 208.095V219.774C297.355 222.331 297.712 224.265 298.409 225.577V226H291.138ZM285.186 220.995C286.249 220.995 287.228 220.762 288.125 220.297C289.021 219.816 289.685 219.177 290.117 218.38V213.748H287.427C283.825 213.748 281.907 214.993 281.675 217.483L281.65 217.907C281.65 218.803 281.966 219.542 282.596 220.123C283.227 220.704 284.091 220.995 285.186 220.995ZM318.858 205.804C317.878 205.671 317.015 205.605 316.268 205.605C313.545 205.605 311.76 206.526 310.914 208.369V226H303.717V199.056H310.515L310.714 202.268C312.159 199.794 314.159 198.558 316.716 198.558C317.513 198.558 318.26 198.666 318.957 198.881L318.858 205.804ZM329.818 199.056L330.042 202.168C331.968 199.761 334.549 198.558 337.787 198.558C340.642 198.558 342.767 199.396 344.162 201.073C345.556 202.75 346.27 205.256 346.303 208.593V226H339.106V208.768C339.106 207.24 338.774 206.136 338.11 205.456C337.446 204.758 336.342 204.41 334.798 204.41C332.773 204.41 331.254 205.273 330.241 207V226H323.044V199.056H329.818ZM353.005 222.464C353.005 221.318 353.387 220.389 354.151 219.675C354.931 218.961 355.902 218.604 357.064 218.604C358.243 218.604 359.214 218.961 359.978 219.675C360.758 220.389 361.148 221.318 361.148 222.464C361.148 223.593 360.767 224.514 360.003 225.228C359.239 225.925 358.26 226.274 357.064 226.274C355.886 226.274 354.914 225.925 354.151 225.228C353.387 224.514 353.005 223.593 353.005 222.464ZM395.769 212.727H389.818V226H382.347V189.742H395.819C400.102 189.742 403.406 190.697 405.73 192.606C408.054 194.515 409.216 197.213 409.216 200.699C409.216 203.173 408.677 205.24 407.598 206.9C406.535 208.543 404.917 209.855 402.742 210.834L410.586 225.651V226H402.568L395.769 212.727ZM389.818 206.676H395.844C397.72 206.676 399.173 206.203 400.202 205.256C401.231 204.293 401.746 202.974 401.746 201.297C401.746 199.587 401.256 198.242 400.277 197.263C399.314 196.283 397.828 195.793 395.819 195.793H389.818V206.676ZM427.697 226.498C423.746 226.498 420.525 225.286 418.035 222.862C415.562 220.438 414.325 217.209 414.325 213.175V212.478C414.325 209.772 414.848 207.356 415.894 205.231C416.94 203.09 418.417 201.446 420.326 200.301C422.252 199.139 424.443 198.558 426.9 198.558C430.586 198.558 433.483 199.72 435.591 202.044C437.716 204.368 438.779 207.664 438.779 211.93V214.869H421.621C421.854 216.628 422.551 218.04 423.713 219.102C424.892 220.165 426.378 220.696 428.171 220.696C430.943 220.696 433.109 219.691 434.67 217.683L438.206 221.642C437.127 223.169 435.666 224.365 433.823 225.228C431.981 226.075 429.939 226.498 427.697 226.498ZM426.876 204.385C425.448 204.385 424.286 204.866 423.389 205.829C422.509 206.792 421.945 208.17 421.696 209.963H431.707V209.39C431.673 207.796 431.242 206.568 430.412 205.705C429.582 204.825 428.403 204.385 426.876 204.385ZM467.993 212.777C467.993 216.927 467.046 220.256 465.154 222.763C463.278 225.253 460.738 226.498 457.534 226.498C454.811 226.498 452.611 225.552 450.935 223.659V236.359H443.738V199.056H450.412L450.661 201.695C452.404 199.604 454.678 198.558 457.484 198.558C460.804 198.558 463.386 199.786 465.229 202.243C467.071 204.7 467.993 208.087 467.993 212.403V212.777ZM460.796 212.254C460.796 209.747 460.348 207.813 459.451 206.452C458.571 205.09 457.285 204.41 455.591 204.41C453.333 204.41 451.781 205.273 450.935 207V218.031C451.814 219.808 453.383 220.696 455.641 220.696C459.078 220.696 460.796 217.882 460.796 212.254ZM485.726 226.498C481.775 226.498 478.555 225.286 476.064 222.862C473.591 220.438 472.354 217.209 472.354 213.175V212.478C472.354 209.772 472.877 207.356 473.923 205.231C474.969 203.09 476.446 201.446 478.355 200.301C480.281 199.139 482.473 198.558 484.93 198.558C488.615 198.558 491.512 199.72 493.621 202.044C495.746 204.368 496.808 207.664 496.808 211.93V214.869H479.65C479.883 216.628 480.58 218.04 481.742 219.102C482.921 220.165 484.407 220.696 486.2 220.696C488.972 220.696 491.139 219.691 492.699 217.683L496.235 221.642C495.156 223.169 493.695 224.365 491.852 225.228C490.01 226.075 487.968 226.498 485.726 226.498ZM484.905 204.385C483.477 204.385 482.315 204.866 481.418 205.829C480.538 206.792 479.974 208.17 479.725 209.963H489.736V209.39C489.703 207.796 489.271 206.568 488.441 205.705C487.611 204.825 486.432 204.385 484.905 204.385ZM517.381 226C517.049 225.353 516.808 224.547 516.659 223.584C514.915 225.527 512.649 226.498 509.86 226.498C507.221 226.498 505.029 225.734 503.286 224.207C501.559 222.68 500.696 220.754 500.696 218.43C500.696 215.574 501.75 213.383 503.859 211.855C505.984 210.328 509.047 209.556 513.048 209.54H516.36V207.996C516.36 206.75 516.036 205.754 515.388 205.007C514.758 204.26 513.753 203.887 512.375 203.887C511.163 203.887 510.209 204.177 509.512 204.758C508.831 205.339 508.491 206.136 508.491 207.149H501.294C501.294 205.588 501.775 204.144 502.738 202.816C503.701 201.488 505.062 200.45 506.822 199.703C508.582 198.939 510.557 198.558 512.749 198.558C516.069 198.558 518.701 199.396 520.643 201.073C522.602 202.733 523.581 205.074 523.581 208.095V219.774C523.598 222.331 523.955 224.265 524.652 225.577V226H517.381ZM511.429 220.995C512.492 220.995 513.471 220.762 514.367 220.297C515.264 219.816 515.928 219.177 516.36 218.38V213.748H513.67C510.068 213.748 508.15 214.993 507.918 217.483L507.893 217.907C507.893 218.803 508.208 219.542 508.839 220.123C509.47 220.704 510.333 220.995 511.429 220.995ZM538.576 192.432V199.056H543.183V204.335H538.576V217.782C538.576 218.778 538.767 219.492 539.149 219.924C539.53 220.355 540.261 220.571 541.34 220.571C542.137 220.571 542.842 220.513 543.457 220.397V225.851C542.046 226.282 540.593 226.498 539.099 226.498C534.052 226.498 531.479 223.95 531.379 218.853V204.335H527.445V199.056H531.379V192.432H538.576ZM548.416 222.464C548.416 221.318 548.797 220.389 549.561 219.675C550.341 218.961 551.313 218.604 552.475 218.604C553.653 218.604 554.625 218.961 555.388 219.675C556.169 220.389 556.559 221.318 556.559 222.464C556.559 223.593 556.177 224.514 555.413 225.228C554.65 225.925 553.67 226.274 552.475 226.274C551.296 226.274 550.325 225.925 549.561 225.228C548.797 224.514 548.416 223.593 548.416 222.464Z" fill="white"/>
<path d="M104.578 279.762C104 280.59 103.191 281.211 102.152 281.625C101.121 282.031 99.918 282.234 98.543 282.234C97.1523 282.234 95.918 281.91 94.8398 281.262C93.7617 280.605 92.9258 279.676 92.332 278.473C91.7461 277.27 91.4453 275.875 91.4297 274.289V272.801C91.4297 270.23 92.0273 268.238 93.2227 266.824C94.4258 265.41 96.1133 264.703 98.2852 264.703C100.066 264.703 101.5 265.16 102.586 266.074C103.672 266.98 104.336 268.27 104.578 269.941H102.328C101.906 267.684 100.562 266.555 98.2969 266.555C96.7891 266.555 95.6445 267.086 94.8633 268.148C94.0898 269.203 93.6992 270.734 93.6914 272.742V274.137C93.6914 276.051 94.1289 277.574 95.0039 278.707C95.8789 279.832 97.0625 280.395 98.5547 280.395C99.3984 280.395 100.137 280.301 100.77 280.113C101.402 279.926 101.926 279.609 102.34 279.164V275.332H98.3906V273.504H104.578V279.762ZM114.119 282.234C112.4 282.234 111.002 281.672 109.924 280.547C108.845 279.414 108.306 277.902 108.306 276.012V275.613C108.306 274.355 108.545 273.234 109.021 272.25C109.506 271.258 110.177 270.484 111.037 269.93C111.904 269.367 112.842 269.086 113.849 269.086C115.498 269.086 116.779 269.629 117.693 270.715C118.607 271.801 119.064 273.355 119.064 275.379V276.281H110.474C110.506 277.531 110.869 278.543 111.564 279.316C112.267 280.082 113.158 280.465 114.236 280.465C115.002 280.465 115.65 280.309 116.181 279.996C116.713 279.684 117.177 279.27 117.576 278.754L118.9 279.785C117.838 281.418 116.244 282.234 114.119 282.234ZM113.849 270.867C112.974 270.867 112.24 271.188 111.646 271.828C111.052 272.461 110.685 273.352 110.545 274.5H116.896V274.336C116.834 273.234 116.537 272.383 116.006 271.781C115.474 271.172 114.756 270.867 113.849 270.867ZM125.382 266.25V269.32H127.749V270.996H125.382V278.859C125.382 279.367 125.488 279.75 125.699 280.008C125.91 280.258 126.269 280.383 126.777 280.383C127.027 280.383 127.371 280.336 127.808 280.242V282C127.238 282.156 126.683 282.234 126.144 282.234C125.175 282.234 124.445 281.941 123.953 281.355C123.46 280.77 123.214 279.938 123.214 278.859V270.996H120.906V269.32H123.214V266.25H125.382ZM144.089 271.266C143.761 271.211 143.405 271.184 143.022 271.184C141.6 271.184 140.636 271.789 140.128 273V282H137.96V269.32H140.069L140.104 270.785C140.815 269.652 141.823 269.086 143.128 269.086C143.55 269.086 143.87 269.141 144.089 269.25V271.266ZM151.977 282.234C150.258 282.234 148.86 281.672 147.782 280.547C146.704 279.414 146.165 277.902 146.165 276.012V275.613C146.165 274.355 146.403 273.234 146.879 272.25C147.364 271.258 148.036 270.484 148.895 269.93C149.762 269.367 150.7 269.086 151.708 269.086C153.356 269.086 154.637 269.629 155.551 270.715C156.465 271.801 156.922 273.355 156.922 275.379V276.281H148.333C148.364 277.531 148.727 278.543 149.422 279.316C150.126 280.082 151.016 280.465 152.094 280.465C152.86 280.465 153.508 280.309 154.04 279.996C154.571 279.684 155.036 279.27 155.434 278.754L156.758 279.785C155.696 281.418 154.102 282.234 151.977 282.234ZM151.708 270.867C150.833 270.867 150.098 271.188 149.504 271.828C148.911 272.461 148.544 273.352 148.403 274.5H154.754V274.336C154.692 273.234 154.395 272.383 153.864 271.781C153.333 271.172 152.614 270.867 151.708 270.867ZM171.526 279.012L173.963 269.32H176.131L172.44 282H170.682L167.6 272.391L164.6 282H162.842L159.162 269.32H161.319L163.815 278.812L166.768 269.32H168.514L171.526 279.012ZM187.031 282C186.906 281.75 186.805 281.305 186.727 280.664C185.719 281.711 184.516 282.234 183.117 282.234C181.867 282.234 180.84 281.883 180.035 281.18C179.238 280.469 178.84 279.57 178.84 278.484C178.84 277.164 179.34 276.141 180.34 275.414C181.348 274.68 182.762 274.312 184.582 274.312H186.691V273.316C186.691 272.559 186.465 271.957 186.012 271.512C185.559 271.059 184.891 270.832 184.008 270.832C183.234 270.832 182.586 271.027 182.062 271.418C181.539 271.809 181.277 272.281 181.277 272.836H179.098C179.098 272.203 179.32 271.594 179.766 271.008C180.219 270.414 180.828 269.945 181.594 269.602C182.367 269.258 183.215 269.086 184.137 269.086C185.598 269.086 186.742 269.453 187.57 270.188C188.398 270.914 188.828 271.918 188.859 273.199V279.035C188.859 280.199 189.008 281.125 189.305 281.812V282H187.031ZM183.434 280.348C184.113 280.348 184.758 280.172 185.367 279.82C185.977 279.469 186.418 279.012 186.691 278.449V275.848H184.992C182.336 275.848 181.008 276.625 181.008 278.18C181.008 278.859 181.234 279.391 181.688 279.773C182.141 280.156 182.723 280.348 183.434 280.348ZM199.244 271.266C198.916 271.211 198.56 271.184 198.177 271.184C196.756 271.184 195.791 271.789 195.283 273V282H193.115V269.32H195.224L195.259 270.785C195.97 269.652 196.978 269.086 198.283 269.086C198.705 269.086 199.025 269.141 199.244 269.25V271.266ZM201.343 275.555C201.343 273.609 201.804 272.047 202.726 270.867C203.648 269.68 204.855 269.086 206.347 269.086C207.831 269.086 209.007 269.594 209.874 270.609V264H212.042V282H210.05L209.945 280.641C209.078 281.703 207.871 282.234 206.324 282.234C204.855 282.234 203.656 281.633 202.726 280.43C201.804 279.227 201.343 277.656 201.343 275.719V275.555ZM203.511 275.801C203.511 277.238 203.808 278.363 204.402 279.176C204.996 279.988 205.816 280.395 206.863 280.395C208.238 280.395 209.242 279.777 209.874 278.543V272.719C209.226 271.523 208.23 270.926 206.886 270.926C205.824 270.926 204.996 271.336 204.402 272.156C203.808 272.977 203.511 274.191 203.511 275.801ZM221.536 282.234C219.818 282.234 218.419 281.672 217.341 280.547C216.263 279.414 215.724 277.902 215.724 276.012V275.613C215.724 274.355 215.962 273.234 216.439 272.25C216.923 271.258 217.595 270.484 218.454 269.93C219.321 269.367 220.259 269.086 221.267 269.086C222.915 269.086 224.196 269.629 225.11 270.715C226.025 271.801 226.482 273.355 226.482 275.379V276.281H217.892C217.923 277.531 218.286 278.543 218.982 279.316C219.685 280.082 220.575 280.465 221.653 280.465C222.419 280.465 223.068 280.309 223.599 279.996C224.13 279.684 224.595 279.27 224.993 278.754L226.318 279.785C225.255 281.418 223.661 282.234 221.536 282.234ZM221.267 270.867C220.392 270.867 219.657 271.188 219.064 271.828C218.47 272.461 218.103 273.352 217.962 274.5H224.314V274.336C224.251 273.234 223.954 272.383 223.423 271.781C222.892 271.172 222.173 270.867 221.267 270.867ZM229.331 275.555C229.331 273.609 229.792 272.047 230.714 270.867C231.636 269.68 232.843 269.086 234.335 269.086C235.819 269.086 236.995 269.594 237.862 270.609V264H240.03V282H238.038L237.932 280.641C237.065 281.703 235.858 282.234 234.311 282.234C232.843 282.234 231.643 281.633 230.714 280.43C229.792 279.227 229.331 277.656 229.331 275.719V275.555ZM231.499 275.801C231.499 277.238 231.796 278.363 232.39 279.176C232.983 279.988 233.804 280.395 234.85 280.395C236.225 280.395 237.229 279.777 237.862 278.543V272.719C237.214 271.523 236.218 270.926 234.874 270.926C233.811 270.926 232.983 271.336 232.39 272.156C231.796 272.977 231.499 274.191 231.499 275.801ZM252.139 282V270.996H250.135V269.32H252.139V268.02C252.139 266.66 252.502 265.609 253.229 264.867C253.955 264.125 254.983 263.754 256.311 263.754C256.811 263.754 257.307 263.82 257.799 263.953L257.682 265.711C257.315 265.641 256.924 265.605 256.51 265.605C255.807 265.605 255.264 265.812 254.881 266.227C254.498 266.633 254.307 267.219 254.307 267.984V269.32H257.014V270.996H254.307V282H252.139ZM259.699 275.543C259.699 274.301 259.941 273.184 260.426 272.191C260.918 271.199 261.598 270.434 262.465 269.895C263.34 269.355 264.336 269.086 265.453 269.086C267.18 269.086 268.574 269.684 269.637 270.879C270.707 272.074 271.242 273.664 271.242 275.648V275.801C271.242 277.035 271.004 278.145 270.527 279.129C270.059 280.105 269.383 280.867 268.5 281.414C267.625 281.961 266.617 282.234 265.477 282.234C263.758 282.234 262.363 281.637 261.293 280.441C260.23 279.246 259.699 277.664 259.699 275.695V275.543ZM261.879 275.801C261.879 277.207 262.203 278.336 262.852 279.188C263.508 280.039 264.383 280.465 265.477 280.465C266.578 280.465 267.453 280.035 268.102 279.176C268.75 278.309 269.074 277.098 269.074 275.543C269.074 274.152 268.742 273.027 268.078 272.168C267.422 271.301 266.547 270.867 265.453 270.867C264.383 270.867 263.52 271.293 262.863 272.145C262.207 272.996 261.879 274.215 261.879 275.801ZM280.947 271.266C280.619 271.211 280.263 271.184 279.881 271.184C278.459 271.184 277.494 271.789 276.986 273V282H274.818V269.32H276.927L276.963 270.785C277.674 269.652 278.681 269.086 279.986 269.086C280.408 269.086 280.728 269.141 280.947 269.25V271.266ZM295.88 282.234C294.161 282.234 292.763 281.672 291.685 280.547C290.607 279.414 290.068 277.902 290.068 276.012V275.613C290.068 274.355 290.306 273.234 290.782 272.25C291.267 271.258 291.939 270.484 292.798 269.93C293.665 269.367 294.603 269.086 295.61 269.086C297.259 269.086 298.54 269.629 299.454 270.715C300.368 271.801 300.825 273.355 300.825 275.379V276.281H292.235C292.267 277.531 292.63 278.543 293.325 279.316C294.028 280.082 294.919 280.465 295.997 280.465C296.763 280.465 297.411 280.309 297.943 279.996C298.474 279.684 298.939 279.27 299.337 278.754L300.661 279.785C299.599 281.418 298.005 282.234 295.88 282.234ZM295.61 270.867C294.735 270.867 294.001 271.188 293.407 271.828C292.814 272.461 292.446 273.352 292.306 274.5H298.657V274.336C298.595 273.234 298.298 272.383 297.767 271.781C297.235 271.172 296.517 270.867 295.61 270.867ZM308.222 279.059L311.362 269.32H313.577L309.03 282H307.378L302.784 269.32H304.999L308.222 279.059ZM321.618 282.234C319.899 282.234 318.501 281.672 317.422 280.547C316.344 279.414 315.805 277.902 315.805 276.012V275.613C315.805 274.355 316.044 273.234 316.52 272.25C317.004 271.258 317.676 270.484 318.536 269.93C319.403 269.367 320.34 269.086 321.348 269.086C322.997 269.086 324.278 269.629 325.192 270.715C326.106 271.801 326.563 273.355 326.563 275.379V276.281H317.973C318.004 277.531 318.368 278.543 319.063 279.316C319.766 280.082 320.657 280.465 321.735 280.465C322.501 280.465 323.149 280.309 323.68 279.996C324.212 279.684 324.676 279.27 325.075 278.754L326.399 279.785C325.337 281.418 323.743 282.234 321.618 282.234ZM321.348 270.867C320.473 270.867 319.739 271.188 319.145 271.828C318.551 272.461 318.184 273.352 318.044 274.5H324.395V274.336C324.333 273.234 324.036 272.383 323.504 271.781C322.973 271.172 322.254 270.867 321.348 270.867ZM336.069 271.266C335.741 271.211 335.385 271.184 335.002 271.184C333.58 271.184 332.616 271.789 332.108 273V282H329.94V269.32H332.049L332.084 270.785C332.795 269.652 333.803 269.086 335.108 269.086C335.53 269.086 335.85 269.141 336.069 269.25V271.266ZM343.289 278.824L346.242 269.32H348.562L343.465 283.957C342.676 286.066 341.422 287.121 339.703 287.121L339.293 287.086L338.484 286.934V285.176L339.07 285.223C339.805 285.223 340.375 285.074 340.781 284.777C341.195 284.48 341.535 283.938 341.801 283.148L342.281 281.859L337.758 269.32H340.125L343.289 278.824ZM365.558 278.637C365.558 278.051 365.335 277.598 364.89 277.277C364.453 276.949 363.683 276.668 362.581 276.434C361.488 276.199 360.617 275.918 359.968 275.59C359.328 275.262 358.851 274.871 358.539 274.418C358.234 273.965 358.081 273.426 358.081 272.801C358.081 271.762 358.519 270.883 359.394 270.164C360.277 269.445 361.402 269.086 362.769 269.086C364.206 269.086 365.371 269.457 366.261 270.199C367.16 270.941 367.609 271.891 367.609 273.047H365.429C365.429 272.453 365.175 271.941 364.667 271.512C364.167 271.082 363.535 270.867 362.769 270.867C361.98 270.867 361.363 271.039 360.917 271.383C360.472 271.727 360.249 272.176 360.249 272.73C360.249 273.254 360.456 273.648 360.871 273.914C361.285 274.18 362.031 274.434 363.109 274.676C364.195 274.918 365.074 275.207 365.746 275.543C366.417 275.879 366.914 276.285 367.234 276.762C367.562 277.23 367.726 277.805 367.726 278.484C367.726 279.617 367.273 280.527 366.367 281.215C365.46 281.895 364.285 282.234 362.839 282.234C361.824 282.234 360.925 282.055 360.144 281.695C359.363 281.336 358.749 280.836 358.304 280.195C357.867 279.547 357.648 278.848 357.648 278.098H359.816C359.855 278.824 360.144 279.402 360.683 279.832C361.23 280.254 361.949 280.465 362.839 280.465C363.66 280.465 364.316 280.301 364.808 279.973C365.308 279.637 365.558 279.191 365.558 278.637ZM379.236 282C379.111 281.75 379.009 281.305 378.931 280.664C377.923 281.711 376.72 282.234 375.321 282.234C374.071 282.234 373.044 281.883 372.239 281.18C371.443 280.469 371.044 279.57 371.044 278.484C371.044 277.164 371.544 276.141 372.544 275.414C373.552 274.68 374.966 274.312 376.786 274.312H378.896V273.316C378.896 272.559 378.669 271.957 378.216 271.512C377.763 271.059 377.095 270.832 376.212 270.832C375.439 270.832 374.79 271.027 374.267 271.418C373.743 271.809 373.482 272.281 373.482 272.836H371.302C371.302 272.203 371.525 271.594 371.97 271.008C372.423 270.414 373.032 269.945 373.798 269.602C374.571 269.258 375.419 269.086 376.341 269.086C377.802 269.086 378.946 269.453 379.775 270.188C380.603 270.914 381.032 271.918 381.064 273.199V279.035C381.064 280.199 381.212 281.125 381.509 281.812V282H379.236ZM375.638 280.348C376.318 280.348 376.962 280.172 377.571 279.82C378.181 279.469 378.622 279.012 378.896 278.449V275.848H377.196C374.54 275.848 373.212 276.625 373.212 278.18C373.212 278.859 373.439 279.391 373.892 279.773C374.345 280.156 374.927 280.348 375.638 280.348ZM387.675 282H385.507V264H387.675V282ZM397.274 282.234C395.555 282.234 394.157 281.672 393.079 280.547C392.001 279.414 391.461 277.902 391.461 276.012V275.613C391.461 274.355 391.7 273.234 392.176 272.25C392.661 271.258 393.333 270.484 394.192 269.93C395.059 269.367 395.997 269.086 397.004 269.086C398.653 269.086 399.934 269.629 400.848 270.715C401.762 271.801 402.219 273.355 402.219 275.379V276.281H393.629C393.661 277.531 394.024 278.543 394.719 279.316C395.422 280.082 396.313 280.465 397.391 280.465C398.157 280.465 398.805 280.309 399.336 279.996C399.868 279.684 400.333 279.27 400.731 278.754L402.055 279.785C400.993 281.418 399.399 282.234 397.274 282.234ZM397.004 270.867C396.129 270.867 395.395 271.188 394.801 271.828C394.208 272.461 393.84 273.352 393.7 274.5H400.051V274.336C399.989 273.234 399.692 272.383 399.161 271.781C398.629 271.172 397.911 270.867 397.004 270.867ZM417.492 280.465C418.266 280.465 418.941 280.23 419.52 279.762C420.098 279.293 420.418 278.707 420.48 278.004H422.531C422.492 278.73 422.242 279.422 421.781 280.078C421.32 280.734 420.703 281.258 419.93 281.648C419.164 282.039 418.352 282.234 417.492 282.234C415.766 282.234 414.391 281.66 413.367 280.512C412.352 279.355 411.844 277.777 411.844 275.777V275.414C411.844 274.18 412.07 273.082 412.523 272.121C412.977 271.16 413.625 270.414 414.469 269.883C415.32 269.352 416.324 269.086 417.48 269.086C418.902 269.086 420.082 269.512 421.02 270.363C421.965 271.215 422.469 272.32 422.531 273.68H420.48C420.418 272.859 420.105 272.188 419.543 271.664C418.988 271.133 418.301 270.867 417.48 270.867C416.379 270.867 415.523 271.266 414.914 272.062C414.312 272.852 414.012 273.996 414.012 275.496V275.906C414.012 277.367 414.312 278.492 414.914 279.281C415.516 280.07 416.375 280.465 417.492 280.465ZM425.252 275.543C425.252 274.301 425.494 273.184 425.978 272.191C426.47 271.199 427.15 270.434 428.017 269.895C428.892 269.355 429.888 269.086 431.006 269.086C432.732 269.086 434.127 269.684 435.189 270.879C436.259 272.074 436.795 273.664 436.795 275.648V275.801C436.795 277.035 436.556 278.145 436.08 279.129C435.611 280.105 434.935 280.867 434.052 281.414C433.177 281.961 432.17 282.234 431.029 282.234C429.31 282.234 427.916 281.637 426.845 280.441C425.783 279.246 425.252 277.664 425.252 275.695V275.543ZM427.431 275.801C427.431 277.207 427.756 278.336 428.404 279.188C429.06 280.039 429.935 280.465 431.029 280.465C432.131 280.465 433.006 280.035 433.654 279.176C434.302 278.309 434.627 277.098 434.627 275.543C434.627 274.152 434.295 273.027 433.631 272.168C432.974 271.301 432.099 270.867 431.006 270.867C429.935 270.867 429.072 271.293 428.416 272.145C427.759 272.996 427.431 274.215 427.431 275.801ZM442.421 269.32L442.492 270.914C443.46 269.695 444.726 269.086 446.289 269.086C448.968 269.086 450.32 270.598 450.343 273.621V282H448.175V273.609C448.167 272.695 447.956 272.02 447.542 271.582C447.136 271.145 446.499 270.926 445.632 270.926C444.929 270.926 444.312 271.113 443.781 271.488C443.249 271.863 442.835 272.355 442.539 272.965V282H440.371V269.32H442.421ZM458.653 279.059L461.794 269.32H464.009L459.462 282H457.81L453.216 269.32H455.431L458.653 279.059ZM472.05 282.234C470.331 282.234 468.932 281.672 467.854 280.547C466.776 279.414 466.237 277.902 466.237 276.012V275.613C466.237 274.355 466.475 273.234 466.952 272.25C467.436 271.258 468.108 270.484 468.968 269.93C469.835 269.367 470.772 269.086 471.78 269.086C473.429 269.086 474.71 269.629 475.624 270.715C476.538 271.801 476.995 273.355 476.995 275.379V276.281H468.405C468.436 277.531 468.8 278.543 469.495 279.316C470.198 280.082 471.089 280.465 472.167 280.465C472.932 280.465 473.581 280.309 474.112 279.996C474.643 279.684 475.108 279.27 475.507 278.754L476.831 279.785C475.768 281.418 474.175 282.234 472.05 282.234ZM471.78 270.867C470.905 270.867 470.171 271.188 469.577 271.828C468.983 272.461 468.616 273.352 468.475 274.5H474.827V274.336C474.764 273.234 474.468 272.383 473.936 271.781C473.405 271.172 472.686 270.867 471.78 270.867ZM486.501 271.266C486.172 271.211 485.817 271.184 485.434 271.184C484.012 271.184 483.047 271.789 482.54 273V282H480.372V269.32H482.481L482.516 270.785C483.227 269.652 484.235 269.086 485.54 269.086C485.961 269.086 486.282 269.141 486.501 269.25V271.266ZM496.744 278.637C496.744 278.051 496.522 277.598 496.076 277.277C495.639 276.949 494.869 276.668 493.768 276.434C492.674 276.199 491.803 275.918 491.155 275.59C490.514 275.262 490.037 274.871 489.725 274.418C489.42 273.965 489.268 273.426 489.268 272.801C489.268 271.762 489.705 270.883 490.58 270.164C491.463 269.445 492.588 269.086 493.955 269.086C495.393 269.086 496.557 269.457 497.448 270.199C498.346 270.941 498.795 271.891 498.795 273.047H496.616C496.616 272.453 496.362 271.941 495.854 271.512C495.354 271.082 494.721 270.867 493.955 270.867C493.166 270.867 492.549 271.039 492.104 271.383C491.658 271.727 491.436 272.176 491.436 272.73C491.436 273.254 491.643 273.648 492.057 273.914C492.471 274.18 493.217 274.434 494.295 274.676C495.381 274.918 496.26 275.207 496.932 275.543C497.604 275.879 498.1 276.285 498.42 276.762C498.748 277.23 498.912 277.805 498.912 278.484C498.912 279.617 498.459 280.527 497.553 281.215C496.647 281.895 495.471 282.234 494.026 282.234C493.01 282.234 492.112 282.055 491.33 281.695C490.549 281.336 489.936 280.836 489.491 280.195C489.053 279.547 488.834 278.848 488.834 278.098H491.002C491.041 278.824 491.33 279.402 491.869 279.832C492.416 280.254 493.135 280.465 494.026 280.465C494.846 280.465 495.502 280.301 495.994 279.973C496.494 279.637 496.744 279.191 496.744 278.637ZM504.949 282H502.781V269.32H504.949V282ZM502.605 265.957C502.605 265.605 502.711 265.309 502.922 265.066C503.141 264.824 503.461 264.703 503.883 264.703C504.305 264.703 504.625 264.824 504.844 265.066C505.062 265.309 505.172 265.605 505.172 265.957C505.172 266.309 505.062 266.602 504.844 266.836C504.625 267.07 504.305 267.188 503.883 267.188C503.461 267.188 503.141 267.07 502.922 266.836C502.711 266.602 502.605 266.309 502.605 265.957ZM508.713 275.543C508.713 274.301 508.955 273.184 509.439 272.191C509.931 271.199 510.611 270.434 511.478 269.895C512.353 269.355 513.349 269.086 514.467 269.086C516.193 269.086 517.588 269.684 518.65 270.879C519.72 272.074 520.256 273.664 520.256 275.648V275.801C520.256 277.035 520.017 278.145 519.541 279.129C519.072 280.105 518.396 280.867 517.513 281.414C516.638 281.961 515.631 282.234 514.49 282.234C512.771 282.234 511.377 281.637 510.306 280.441C509.244 279.246 508.713 277.664 508.713 275.695V275.543ZM510.892 275.801C510.892 277.207 511.217 278.336 511.865 279.188C512.521 280.039 513.396 280.465 514.49 280.465C515.592 280.465 516.467 280.035 517.115 279.176C517.763 278.309 518.088 277.098 518.088 275.543C518.088 274.152 517.756 273.027 517.092 272.168C516.435 271.301 515.56 270.867 514.467 270.867C513.396 270.867 512.533 271.293 511.877 272.145C511.22 272.996 510.892 274.215 510.892 275.801ZM525.882 269.32L525.953 270.914C526.921 269.695 528.187 269.086 529.749 269.086C532.429 269.086 533.781 270.598 533.804 273.621V282H531.636V273.609C531.628 272.695 531.417 272.02 531.003 271.582C530.597 271.145 529.96 270.926 529.093 270.926C528.39 270.926 527.773 271.113 527.242 271.488C526.71 271.863 526.296 272.355 525.999 272.965V282H523.831V269.32H525.882Z" fill="#D9DAE4"/>
</svg>
